<svg width="130" height="48" xmlns="http://www.w3.org/2000/svg">
    <g fill="none" fill-rule="evenodd">
        <path d="M0 0h130v48H0z"/>
        <path d="M65.12 33v-8.928L74.528 33h9.288V15.144h-9.12v8.112l-8.4-8.112H56V33h9.12zm28.16 0v-6.456h11.952v-4.968H93.28v-1.44h12.144v-4.992h-21.12V33h8.976zm29 0V21.288h7.704v-6.144h-24.528v6.144h7.704V33h9.12z" fill="#212429" fill-rule="nonzero"/>
        <path d="M15.383 0h17.234c5.349 0 7.289.557 9.244 1.603a10.904 10.904 0 0 1 4.536 4.536C47.443 8.094 48 10.034 48 15.383v17.234c0 5.349-.557 7.289-1.603 9.244a10.904 10.904 0 0 1-4.536 4.536C39.906 47.443 37.966 48 32.617 48H15.383c-5.349 0-7.289-.557-9.244-1.603a10.904 10.904 0 0 1-4.536-4.536C.557 39.906 0 37.966 0 32.617V15.383c0-5.349.557-7.289 1.603-9.244a10.904 10.904 0 0 1 4.536-4.536C8.094.557 10.034 0 15.383 0z" fill="#00B8B9"/>
        <path d="M11.076 32.336c1.68 0 3.1-.488 4.26-1.464 1.16-.976 1.74-2.328 1.74-4.056 0-1.184-.356-2.196-1.068-3.036-.712-.84-1.636-1.428-2.772-1.764l3.144-4.08V15.2H5.82v3.096h6.576l-3.312 4.32 1.272 1.92h.72c.848 0 1.508.208 1.98.624.472.416.708.968.708 1.656 0 .704-.236 1.26-.708 1.668-.472.408-1.132.612-1.98.612-1.536 0-2.512-.648-2.928-1.944l-2.832 1.632c.464 1.168 1.212 2.052 2.244 2.652 1.032.6 2.204.9 3.516.9zm12.392 0c1.792 0 3.256-.548 4.392-1.644 1.136-1.096 1.704-2.5 1.704-4.212 0-1.68-.544-3.06-1.632-4.14-1.088-1.08-2.504-1.644-4.248-1.692l3.72-5.448h-3.792l-5.232 7.896c-.656.976-.984 2.104-.984 3.384 0 1.728.564 3.136 1.692 4.224 1.128 1.088 2.588 1.632 4.38 1.632zm0-3.12c-.8 0-1.464-.248-1.992-.744s-.792-1.16-.792-1.992c0-.832.264-1.492.792-1.98s1.192-.732 1.992-.732 1.468.248 2.004.744.804 1.152.804 1.968c0 .832-.268 1.496-.804 1.992s-1.204.744-2.004.744zm13.208 3.12c2.112 0 3.76-.796 4.944-2.388 1.184-1.592 1.776-3.708 1.776-6.348 0-2.64-.592-4.756-1.776-6.348-1.184-1.592-2.832-2.388-4.944-2.388-2.096 0-3.74.796-4.932 2.388-1.192 1.592-1.788 3.708-1.788 6.348 0 2.64.596 4.756 1.788 6.348 1.192 1.592 2.836 2.388 4.932 2.388zm0-3.24c-1.12 0-1.968-.464-2.544-1.392-.576-.944-.864-2.312-.864-4.104 0-1.792.288-3.16.864-4.104.576-.944 1.424-1.416 2.544-1.416s1.972.472 2.556 1.416c.584.944.876 2.312.876 4.104 0 1.776-.292 3.136-.876 4.08-.584.944-1.436 1.416-2.556 1.416z" fill="#FFF" fill-rule="nonzero"/>
    </g>
</svg>
