<?xml version="1.0" encoding="UTF-8"?>
<svg width="130px" height="48px" viewBox="0 0 130 48" version="1.1" xmlns="http://www.w3.org/2000/svg" xmlns:xlink="http://www.w3.org/1999/xlink">
    <title>6A83DDD0-D75F-435C-885C-FB26DCFBD699</title>
    <g id="02_desktop_d" stroke="none" stroke-width="1" fill="none" fill-rule="evenodd">
        <g id="05_profile_d" transform="translate(-68.000000, -68.000000)">
            <g id="sidebar" transform="translate(20.000000, 20.000000)">
                <g id="360_nft_horizontal" transform="translate(48.000000, 48.000000)">
                    <rect id="frame" x="0" y="0" width="130" height="48"></rect>
                    <path d="M65.12,33 L65.12,24.072 L74.528,33 L83.816,33 L83.816,15.144 L74.696,15.144 L74.696,23.256 L66.296,15.144 L56,15.144 L56,33 L65.12,33 Z M93.28,33 L93.28,26.544 L105.232,26.544 L105.232,21.576 L93.28,21.576 L93.28,20.136 L105.424,20.136 L105.424,15.144 L84.304,15.144 L84.304,33 L93.28,33 Z M122.28,33 L122.28,21.288 L129.984,21.288 L129.984,15.144 L105.456,15.144 L105.456,21.288 L113.16,21.288 L113.16,33 L122.28,33 Z" id="shape" fill="#FFFFFF" fill-rule="nonzero"></path>
                    <g id="360_nft_mark">
                        <path d="M15.3833112,-6.21504185e-16 L32.6166888,6.21504185e-16 C37.9658012,-3.61111829e-16 39.9055187,0.556953667 41.8610742,1.60279622 C43.8166298,2.64863878 45.3513612,4.18337022 46.3972038,6.13892578 C47.4430463,8.09448133 48,10.0341988 48,15.3833112 L48,32.6166888 C48,37.9658012 47.4430463,39.9055187 46.3972038,41.8610742 C45.3513612,43.8166298 43.8166298,45.3513612 41.8610742,46.3972038 C39.9055187,47.4430463 37.9658012,48 32.6166888,48 L15.3833112,48 C10.0341988,48 8.09448133,47.4430463 6.13892578,46.3972038 C4.18337022,45.3513612 2.64863878,43.8166298 1.60279622,41.8610742 C0.556953667,39.9055187 2.4074122e-16,37.9658012 -4.14336123e-16,32.6166888 L4.14336123e-16,15.3833112 C-2.4074122e-16,10.0341988 0.556953667,8.09448133 1.60279622,6.13892578 C2.64863878,4.18337022 4.18337022,2.64863878 6.13892578,1.60279622 C8.09448133,0.556953667 10.0341988,3.61111829e-16 15.3833112,-6.21504185e-16 Z" id="surface" fill="#00B8B9"></path>
                        <path d="M11.076,32.336 C12.756,32.336 14.176,31.848 15.336,30.872 C16.496,29.896 17.076,28.544 17.076,26.816 C17.076,25.632 16.72,24.62 16.008,23.78 C15.296,22.94 14.372,22.352 13.236,22.016 L13.236,22.016 L16.38,17.936 L16.38,15.2 L5.82,15.2 L5.82,18.296 L12.396,18.296 L9.084,22.616 L10.356,24.536 L11.076,24.536 C11.924,24.536 12.584,24.744 13.056,25.16 C13.528,25.576 13.764,26.128 13.764,26.816 C13.764,27.52 13.528,28.076 13.056,28.484 C12.584,28.892 11.924,29.096 11.076,29.096 C9.54,29.096 8.564,28.448 8.148,27.152 L8.148,27.152 L5.316,28.784 C5.78,29.952 6.528,30.836 7.56,31.436 C8.592,32.036 9.764,32.336 11.076,32.336 Z M23.468,32.336 C25.26,32.336 26.724,31.788 27.86,30.692 C28.996,29.596 29.564,28.192 29.564,26.48 C29.564,24.8 29.02,23.42 27.932,22.34 C26.844,21.26 25.428,20.696 23.684,20.648 L23.684,20.648 L27.404,15.2 L23.612,15.2 L18.38,23.096 C17.724,24.072 17.396,25.2 17.396,26.48 C17.396,28.208 17.96,29.616 19.088,30.704 C20.216,31.792 21.676,32.336 23.468,32.336 Z M23.468,29.216 C22.668,29.216 22.004,28.968 21.476,28.472 C20.948,27.976 20.684,27.312 20.684,26.48 C20.684,25.648 20.948,24.988 21.476,24.5 C22.004,24.012 22.668,23.768 23.468,23.768 C24.268,23.768 24.936,24.016 25.472,24.512 C26.008,25.008 26.276,25.664 26.276,26.48 C26.276,27.312 26.008,27.976 25.472,28.472 C24.936,28.968 24.268,29.216 23.468,29.216 Z M36.676,32.336 C38.788,32.336 40.436,31.54 41.62,29.948 C42.804,28.356 43.396,26.24 43.396,23.6 C43.396,20.96 42.804,18.844 41.62,17.252 C40.436,15.66 38.788,14.864 36.676,14.864 C34.58,14.864 32.936,15.66 31.744,17.252 C30.552,18.844 29.956,20.96 29.956,23.6 C29.956,26.24 30.552,28.356 31.744,29.948 C32.936,31.54 34.58,32.336 36.676,32.336 Z M36.676,29.096 C35.556,29.096 34.708,28.632 34.132,27.704 C33.556,26.76 33.268,25.392 33.268,23.6 C33.268,21.808 33.556,20.44 34.132,19.496 C34.708,18.552 35.556,18.08 36.676,18.08 C37.796,18.08 38.648,18.552 39.232,19.496 C39.816,20.44 40.108,21.808 40.108,23.6 C40.108,25.376 39.816,26.736 39.232,27.68 C38.648,28.624 37.796,29.096 36.676,29.096 Z" id="shape" fill="#FFFFFF" fill-rule="nonzero"></path>
                    </g>
                </g>
            </g>
        </g>
    </g>
</svg>