<svg width="262" height="96" xmlns="http://www.w3.org/2000/svg">
    <defs>
        <linearGradient x1="0%" y1="0%" x2="99.852%" y2="99.852%" id="a">
            <stop stop-color="#0FA" offset="0%"/>
            <stop stop-color="#4579F5" offset="53.085%"/>
            <stop stop-color="#9C42F5" offset="99.982%"/>
        </linearGradient>
    </defs>
    <g fill="none" fill-rule="evenodd">
        <path d="M0 0h262v96H0z"/>
        <path d="M131.728 66V48.144L150.544 66h18.576V30.288h-18.24v16.224l-16.8-16.224h-20.592V66h18.24zm56.32 0V53.088h23.904v-9.936h-23.904v-2.88h24.288v-9.984h-42.24V66h17.952zm58 0V42.576h15.408V30.288H212.4v12.288h15.408V66h18.24z" fill="#FFF" fill-rule="nonzero"/>
        <path d="M30.767 0h34.466c10.699 0 14.578 1.114 18.49 3.206 3.91 2.091 6.98 5.16 9.071 9.072C94.886 16.189 96 20.068 96 30.767v34.466c0 10.699-1.114 14.578-3.206 18.49-2.091 3.91-5.16 6.98-9.072 9.071C79.811 94.886 75.932 96 65.233 96H30.767c-10.699 0-14.578-1.114-18.49-3.206-3.91-2.091-6.98-5.16-9.071-9.072C1.114 79.811 0 75.932 0 65.233V30.767c0-10.699 1.114-14.578 3.206-18.49 2.091-3.91 5.16-6.98 9.072-9.071C16.189 1.114 20.068 0 30.767 0z" fill="url(#a)"/>
        <path d="M22.152 64.672c3.36 0 6.2-.976 8.52-2.928 2.32-1.952 3.48-4.656 3.48-8.112 0-2.368-.712-4.392-2.136-6.072-1.424-1.68-3.272-2.856-5.544-3.528l6.288-8.16V30.4H11.64v6.192h13.152l-6.624 8.64 2.544 3.84h1.44c1.696 0 3.016.416 3.96 1.248.944.832 1.416 1.936 1.416 3.312 0 1.408-.472 2.52-1.416 3.336-.944.816-2.264 1.224-3.96 1.224-3.072 0-5.024-1.296-5.856-3.888l-5.664 3.264c.928 2.336 2.424 4.104 4.488 5.304 2.064 1.2 4.408 1.8 7.032 1.8zm24.784 0c3.584 0 6.512-1.096 8.784-3.288 2.272-2.192 3.408-5 3.408-8.424 0-3.36-1.088-6.12-3.264-8.28-2.176-2.16-5.008-3.288-8.496-3.384l7.44-10.896h-7.584L36.76 46.192c-1.312 1.952-1.968 4.208-1.968 6.768 0 3.456 1.128 6.272 3.384 8.448 2.256 2.176 5.176 3.264 8.76 3.264zm0-6.24c-1.6 0-2.928-.496-3.984-1.488s-1.584-2.32-1.584-3.984c0-1.664.528-2.984 1.584-3.96s2.384-1.464 3.984-1.464 2.936.496 4.008 1.488 1.608 2.304 1.608 3.936c0 1.664-.536 2.992-1.608 3.984s-2.408 1.488-4.008 1.488zm26.416 6.24c4.224 0 7.52-1.592 9.888-4.776 2.368-3.184 3.552-7.416 3.552-12.696 0-5.28-1.184-9.512-3.552-12.696-2.368-3.184-5.664-4.776-9.888-4.776-4.192 0-7.48 1.592-9.864 4.776-2.384 3.184-3.576 7.416-3.576 12.696 0 5.28 1.192 9.512 3.576 12.696 2.384 3.184 5.672 4.776 9.864 4.776zm0-6.48c-2.24 0-3.936-.928-5.088-2.784-1.152-1.888-1.728-4.624-1.728-8.208 0-3.584.576-6.32 1.728-8.208 1.152-1.888 2.848-2.832 5.088-2.832s3.944.944 5.112 2.832c1.168 1.888 1.752 4.624 1.752 8.208 0 3.552-.584 6.272-1.752 8.16-1.168 1.888-2.872 2.832-5.112 2.832z" fill="#FFF" fill-rule="nonzero"/>
    </g>
</svg>
