<?xml version="1.0" encoding="UTF-8"?>
<svg width="48px" height="48px" viewBox="0 0 48 48" version="1.1" xmlns="http://www.w3.org/2000/svg" xmlns:xlink="http://www.w3.org/1999/xlink">
    <title>360_nft_mark</title>
    <g id="01_desktop_l" stroke="none" stroke-width="1" fill="none" fill-rule="evenodd">
        <g id="01_waitlist_l" transform="translate(-68.000000, -68.000000)">
            <g id="header" transform="translate(20.000000, 20.000000)">
                <g id="360_nft_mark" transform="translate(48.000000, 48.000000)">
                    <path d="M24,0 C37.254834,-2.4348735e-15 48,10.745166 48,24 C48,37.254834 37.254834,48 24,48 C10.745166,48 1.623249e-15,37.254834 0,24 C-1.623249e-15,10.745166 10.745166,2.4348735e-15 24,0 Z" id="surface" fill="#00B8B9"></path>
                    <path d="M14.42,40 L14.42,37.024 L17.556,40 L20.652,40 L20.652,34.048 L17.612,34.048 L17.612,36.752 L14.812,34.048 L11.38,34.048 L11.38,40 L14.42,40 Z M24.14,40 L24.14,37.848 L28.124,37.848 L28.124,36.192 L24.14,36.192 L24.14,35.712 L28.188,35.712 L28.188,34.048 L21.148,34.048 L21.148,40 L24.14,40 Z M34.14,40 L34.14,36.096 L36.708,36.096 L36.708,34.048 L28.532,34.048 L28.532,36.096 L31.1,36.096 L31.1,40 L34.14,40 Z" id="shape" fill="#000000" fill-rule="nonzero"></path>
                    <path d="M11.076,28.336 C12.756,28.336 14.176,27.848 15.336,26.872 C16.496,25.896 17.076,24.544 17.076,22.816 C17.076,21.632 16.72,20.62 16.008,19.78 C15.296,18.94 14.372,18.352 13.236,18.016 L13.236,18.016 L16.38,13.936 L16.38,11.2 L5.82,11.2 L5.82,14.296 L12.396,14.296 L9.084,18.616 L10.356,20.536 L11.076,20.536 C11.924,20.536 12.584,20.744 13.056,21.16 C13.528,21.576 13.764,22.128 13.764,22.816 C13.764,23.52 13.528,24.076 13.056,24.484 C12.584,24.892 11.924,25.096 11.076,25.096 C9.54,25.096 8.564,24.448 8.148,23.152 L8.148,23.152 L5.316,24.784 C5.78,25.952 6.528,26.836 7.56,27.436 C8.592,28.036 9.764,28.336 11.076,28.336 Z M23.468,28.336 C25.26,28.336 26.724,27.788 27.86,26.692 C28.996,25.596 29.564,24.192 29.564,22.48 C29.564,20.8 29.02,19.42 27.932,18.34 C26.844,17.26 25.428,16.696 23.684,16.648 L23.684,16.648 L27.404,11.2 L23.612,11.2 L18.38,19.096 C17.724,20.072 17.396,21.2 17.396,22.48 C17.396,24.208 17.96,25.616 19.088,26.704 C20.216,27.792 21.676,28.336 23.468,28.336 Z M23.468,25.216 C22.668,25.216 22.004,24.968 21.476,24.472 C20.948,23.976 20.684,23.312 20.684,22.48 C20.684,21.648 20.948,20.988 21.476,20.5 C22.004,20.012 22.668,19.768 23.468,19.768 C24.268,19.768 24.936,20.016 25.472,20.512 C26.008,21.008 26.276,21.664 26.276,22.48 C26.276,23.312 26.008,23.976 25.472,24.472 C24.936,24.968 24.268,25.216 23.468,25.216 Z M36.676,28.336 C38.788,28.336 40.436,27.54 41.62,25.948 C42.804,24.356 43.396,22.24 43.396,19.6 C43.396,16.96 42.804,14.844 41.62,13.252 C40.436,11.66 38.788,10.864 36.676,10.864 C34.58,10.864 32.936,11.66 31.744,13.252 C30.552,14.844 29.956,16.96 29.956,19.6 C29.956,22.24 30.552,24.356 31.744,25.948 C32.936,27.54 34.58,28.336 36.676,28.336 Z M36.676,25.096 C35.556,25.096 34.708,24.632 34.132,23.704 C33.556,22.76 33.268,21.392 33.268,19.6 C33.268,17.808 33.556,16.44 34.132,15.496 C34.708,14.552 35.556,14.08 36.676,14.08 C37.796,14.08 38.648,14.552 39.232,15.496 C39.816,16.44 40.108,17.808 40.108,19.6 C40.108,21.376 39.816,22.736 39.232,23.68 C38.648,24.624 37.796,25.096 36.676,25.096 Z" id="shape" fill="#FFFFFF" fill-rule="nonzero"></path>
                </g>
            </g>
        </g>
    </g>
</svg>